<svg class="rich-terminal" viewBox="0 0 1482 977.1999999999999" xmlns="http://www.w3.org/2000/svg">
    <!-- Generated with Rich https://www.textualize.io -->
    <style>

    @font-face {
        font-family: "Fira Code";
        src: local("FiraCode-Regular"),
                url("https://cdnjs.cloudflare.com/ajax/libs/firacode/6.2.0/woff2/FiraCode-Regular.woff2") format("woff2"),
                url("https://cdnjs.cloudflare.com/ajax/libs/firacode/6.2.0/woff/FiraCode-Regular.woff") format("woff");
        font-style: normal;
        font-weight: 400;
    }
    @font-face {
        font-family: "Fira Code";
        src: local("FiraCode-Bold"),
                url("https://cdnjs.cloudflare.com/ajax/libs/firacode/6.2.0/woff2/FiraCode-Bold.woff2") format("woff2"),
                url("https://cdnjs.cloudflare.com/ajax/libs/firacode/6.2.0/woff/FiraCode-Bold.woff") format("woff");
        font-style: bold;
        font-weight: 700;
    }

    .terminal-3781296339-matrix {
        font-family: Fira Code, monospace;
        font-size: 20px;
        line-height: 24.4px;
        font-variant-east-asian: full-width;
    }

    .terminal-3781296339-title {
        font-size: 18px;
        font-weight: bold;
        font-family: arial;
    }

    .terminal-3781296339-r1 { fill: #c5c8c6 }
.terminal-3781296339-r2 { fill: #e0e0e0 }
.terminal-3781296339-r3 { fill: #a0a3a6 }
.terminal-3781296339-r4 { fill: #e0e0e0;font-weight: bold }
.terminal-3781296339-r5 { fill: #ddedf9;font-weight: bold }
.terminal-3781296339-r6 { fill: #8ea9c0 }
.terminal-3781296339-r7 { fill: #1e1e1e }
.terminal-3781296339-r8 { fill: #d7f5ff;font-weight: bold }
.terminal-3781296339-r9 { fill: #ffa62b;font-weight: bold }
.terminal-3781296339-r10 { fill: #495259 }
    </style>

    <defs>
    <clipPath id="terminal-3781296339-clip-terminal">
      <rect x="0" y="0" width="1463.0" height="926.1999999999999" />
    </clipPath>
    <clipPath id="terminal-3781296339-line-0">
    <rect x="0" y="1.5" width="1464" height="24.65"/>
            </clipPath>
<clipPath id="terminal-3781296339-line-1">
    <rect x="0" y="25.9" width="1464" height="24.65"/>
            </clipPath>
<clipPath id="terminal-3781296339-line-2">
    <rect x="0" y="50.3" width="1464" height="24.65"/>
            </clipPath>
<clipPath id="terminal-3781296339-line-3">
    <rect x="0" y="74.7" width="1464" height="24.65"/>
            </clipPath>
<clipPath id="terminal-3781296339-line-4">
    <rect x="0" y="99.1" width="1464" height="24.65"/>
            </clipPath>
<clipPath id="terminal-3781296339-line-5">
    <rect x="0" y="123.5" width="1464" height="24.65"/>
            </clipPath>
<clipPath id="terminal-3781296339-line-6">
    <rect x="0" y="147.9" width="1464" height="24.65"/>
            </clipPath>
<clipPath id="terminal-3781296339-line-7">
    <rect x="0" y="172.3" width="1464" height="24.65"/>
            </clipPath>
<clipPath id="terminal-3781296339-line-8">
    <rect x="0" y="196.7" width="1464" height="24.65"/>
            </clipPath>
<clipPath id="terminal-3781296339-line-9">
    <rect x="0" y="221.1" width="1464" height="24.65"/>
            </clipPath>
<clipPath id="terminal-3781296339-line-10">
    <rect x="0" y="245.5" width="1464" height="24.65"/>
            </clipPath>
<clipPath id="terminal-3781296339-line-11">
    <rect x="0" y="269.9" width="1464" height="24.65"/>
            </clipPath>
<clipPath id="terminal-3781296339-line-12">
    <rect x="0" y="294.3" width="1464" height="24.65"/>
            </clipPath>
<clipPath id="terminal-3781296339-line-13">
    <rect x="0" y="318.7" width="1464" height="24.65"/>
            </clipPath>
<clipPath id="terminal-3781296339-line-14">
    <rect x="0" y="343.1" width="1464" height="24.65"/>
            </clipPath>
<clipPath id="terminal-3781296339-line-15">
    <rect x="0" y="367.5" width="1464" height="24.65"/>
            </clipPath>
<clipPath id="terminal-3781296339-line-16">
    <rect x="0" y="391.9" width="1464" height="24.65"/>
            </clipPath>
<clipPath id="terminal-3781296339-line-17">
    <rect x="0" y="416.3" width="1464" height="24.65"/>
            </clipPath>
<clipPath id="terminal-3781296339-line-18">
    <rect x="0" y="440.7" width="1464" height="24.65"/>
            </clipPath>
<clipPath id="terminal-3781296339-line-19">
    <rect x="0" y="465.1" width="1464" height="24.65"/>
            </clipPath>
<clipPath id="terminal-3781296339-line-20">
    <rect x="0" y="489.5" width="1464" height="24.65"/>
            </clipPath>
<clipPath id="terminal-3781296339-line-21">
    <rect x="0" y="513.9" width="1464" height="24.65"/>
            </clipPath>
<clipPath id="terminal-3781296339-line-22">
    <rect x="0" y="538.3" width="1464" height="24.65"/>
            </clipPath>
<clipPath id="terminal-3781296339-line-23">
    <rect x="0" y="562.7" width="1464" height="24.65"/>
            </clipPath>
<clipPath id="terminal-3781296339-line-24">
    <rect x="0" y="587.1" width="1464" height="24.65"/>
            </clipPath>
<clipPath id="terminal-3781296339-line-25">
    <rect x="0" y="611.5" width="1464" height="24.65"/>
            </clipPath>
<clipPath id="terminal-3781296339-line-26">
    <rect x="0" y="635.9" width="1464" height="24.65"/>
            </clipPath>
<clipPath id="terminal-3781296339-line-27">
    <rect x="0" y="660.3" width="1464" height="24.65"/>
            </clipPath>
<clipPath id="terminal-3781296339-line-28">
    <rect x="0" y="684.7" width="1464" height="24.65"/>
            </clipPath>
<clipPath id="terminal-3781296339-line-29">
    <rect x="0" y="709.1" width="1464" height="24.65"/>
            </clipPath>
<clipPath id="terminal-3781296339-line-30">
    <rect x="0" y="733.5" width="1464" height="24.65"/>
            </clipPath>
<clipPath id="terminal-3781296339-line-31">
    <rect x="0" y="757.9" width="1464" height="24.65"/>
            </clipPath>
<clipPath id="terminal-3781296339-line-32">
    <rect x="0" y="782.3" width="1464" height="24.65"/>
            </clipPath>
<clipPath id="terminal-3781296339-line-33">
    <rect x="0" y="806.7" width="1464" height="24.65"/>
            </clipPath>
<clipPath id="terminal-3781296339-line-34">
    <rect x="0" y="831.1" width="1464" height="24.65"/>
            </clipPath>
<clipPath id="terminal-3781296339-line-35">
    <rect x="0" y="855.5" width="1464" height="24.65"/>
            </clipPath>
<clipPath id="terminal-3781296339-line-36">
    <rect x="0" y="879.9" width="1464" height="24.65"/>
            </clipPath>
    </defs>

    <rect fill="#292929" stroke="rgba(255,255,255,0.35)" stroke-width="1" x="1" y="1" width="1480" height="975.2" rx="8"/><text class="terminal-3781296339-title" fill="#c5c8c6" text-anchor="middle" x="740" y="27">dcmon</text>
            <g transform="translate(26,22)">
            <circle cx="0" cy="0" r="7" fill="#ff5f57"/>
            <circle cx="22" cy="0" r="7" fill="#febc2e"/>
            <circle cx="44" cy="0" r="7" fill="#28c840"/>
            </g>
        
    <g transform="translate(9, 41)" clip-path="url(#terminal-3781296339-clip-terminal)">
    <rect fill="#242f38" x="0" y="1.5" width="12.2" height="24.65" shape-rendering="crispEdges"/><rect fill="#242f38" x="12.2" y="1.5" width="12.2" height="24.65" shape-rendering="crispEdges"/><rect fill="#242f38" x="24.4" y="1.5" width="61" height="24.65" shape-rendering="crispEdges"/><rect fill="#242f38" x="85.4" y="1.5" width="12.2" height="24.65" shape-rendering="crispEdges"/><rect fill="#242f38" x="97.6" y="1.5" width="488" height="24.65" shape-rendering="crispEdges"/><rect fill="#242f38" x="585.6" y="1.5" width="61" height="24.65" shape-rendering="crispEdges"/><rect fill="#242f38" x="646.6" y="1.5" width="36.6" height="24.65" shape-rendering="crispEdges"/><rect fill="#242f38" x="683.2" y="1.5" width="158.6" height="24.65" shape-rendering="crispEdges"/><rect fill="#242f38" x="841.8" y="1.5" width="500.2" height="24.65" shape-rendering="crispEdges"/><rect fill="#242f38" x="1342" y="1.5" width="12.2" height="24.65" shape-rendering="crispEdges"/><rect fill="#242f38" x="1354.2" y="1.5" width="0" height="24.65" shape-rendering="crispEdges"/><rect fill="#242f38" x="1354.2" y="1.5" width="97.6" height="24.65" shape-rendering="crispEdges"/><rect fill="#242f38" x="1451.8" y="1.5" width="12.2" height="24.65" shape-rendering="crispEdges"/><rect fill="#2d3740" x="0" y="25.9" width="170.8" height="24.65" shape-rendering="crispEdges"/><rect fill="#2d3740" x="170.8" y="25.9" width="146.4" height="24.65" shape-rendering="crispEdges"/><rect fill="#2d3740" x="317.2" y="25.9" width="256.2" height="24.65" shape-rendering="crispEdges"/><rect fill="#2d3740" x="573.4" y="25.9" width="122" height="24.65" shape-rendering="crispEdges"/><rect fill="#2d3740" x="695.4" y="25.9" width="48.8" height="24.65" shape-rendering="crispEdges"/><rect fill="#2d3740" x="744.2" y="25.9" width="85.4" height="24.65" shape-rendering="crispEdges"/><rect fill="#2d3740" x="829.6" y="25.9" width="634.4" height="24.65" shape-rendering="crispEdges"/><rect fill="#0178d4" x="0" y="50.3" width="170.8" height="24.65" shape-rendering="crispEdges"/><rect fill="#0178d4" x="170.8" y="50.3" width="146.4" height="24.65" shape-rendering="crispEdges"/><rect fill="#0178d4" x="317.2" y="50.3" width="256.2" height="24.65" shape-rendering="crispEdges"/><rect fill="#0178d4" x="573.4" y="50.3" width="122" height="24.65" shape-rendering="crispEdges"/><rect fill="#0178d4" x="695.4" y="50.3" width="48.8" height="24.65" shape-rendering="crispEdges"/><rect fill="#0178d4" x="744.2" y="50.3" width="85.4" height="24.65" shape-rendering="crispEdges"/><rect fill="#0178d4" x="829.6" y="50.3" width="634.4" height="24.65" shape-rendering="crispEdges"/><rect fill="#272727" x="0" y="74.7" width="170.8" height="24.65" shape-rendering="crispEdges"/><rect fill="#272727" x="170.8" y="74.7" width="12.2" height="24.65" shape-rendering="crispEdges"/><rect fill="#272727" x="183" y="74.7" width="85.4" height="24.65" shape-rendering="crispEdges"/><rect fill="#272727" x="268.4" y="74.7" width="48.8" height="24.65" shape-rendering="crispEdges"/><rect fill="#272727" x="317.2" y="74.7" width="12.2" height="24.65" shape-rendering="crispEdges"/><rect fill="#272727" x="329.4" y="74.7" width="134.2" height="24.65" shape-rendering="crispEdges"/><rect fill="#272727" x="463.6" y="74.7" width="109.8" height="24.65" shape-rendering="crispEdges"/><rect fill="#272727" x="573.4" y="74.7" width="12.2" height="24.65" shape-rendering="crispEdges"/><rect fill="#272727" x="585.6" y="74.7" width="48.8" height="24.65" shape-rendering="crispEdges"/><rect fill="#272727" x="634.4" y="74.7" width="61" height="24.65" shape-rendering="crispEdges"/><rect fill="#272727" x="695.4" y="74.7" width="12.2" height="24.65" shape-rendering="crispEdges"/><rect fill="#272727" x="707.6" y="74.7" width="12.2" height="24.65" shape-rendering="crispEdges"/><rect fill="#272727" x="719.8" y="74.7" width="24.4" height="24.65" shape-rendering="crispEdges"/><rect fill="#272727" x="744.2" y="74.7" width="85.4" height="24.65" shape-rendering="crispEdges"/><rect fill="#272727" x="829.6" y="74.7" width="634.4" height="24.65" shape-rendering="crispEdges"/><rect fill="#1c1c1c" x="0" y="99.1" width="170.8" height="24.65" shape-rendering="crispEdges"/><rect fill="#1c1c1c" x="170.8" y="99.1" width="12.2" height="24.65" shape-rendering="crispEdges"/><rect fill="#1c1c1c" x="183" y="99.1" width="73.2" height="24.65" shape-rendering="crispEdges"/><rect fill="#1c1c1c" x="256.2" y="99.1" width="61" height="24.65" shape-rendering="crispEdges"/><rect fill="#1c1c1c" x="317.2" y="99.1" width="12.2" height="24.65" shape-rendering="crispEdges"/><rect fill="#1c1c1c" x="329.4" y="99.1" width="170.8" height="24.65" shape-rendering="crispEdges"/><rect fill="#1c1c1c" x="500.2" y="99.1" width="73.2" height="24.65" shape-rendering="crispEdges"/><rect fill="#1c1c1c" x="573.4" y="99.1" width="12.2" height="24.65" shape-rendering="crispEdges"/><rect fill="#1c1c1c" x="585.6" y="99.1" width="48.8" height="24.65" shape-rendering="crispEdges"/><rect fill="#1c1c1c" x="634.4" y="99.1" width="61" height="24.65" shape-rendering="crispEdges"/><rect fill="#1c1c1c" x="695.4" y="99.1" width="12.2" height="24.65" shape-rendering="crispEdges"/><rect fill="#1c1c1c" x="707.6" y="99.1" width="12.2" height="24.65" shape-rendering="crispEdges"/><rect fill="#1c1c1c" x="719.8" y="99.1" width="24.4" height="24.65" shape-rendering="crispEdges"/><rect fill="#1c1c1c" x="744.2" y="99.1" width="12.2" height="24.65" shape-rendering="crispEdges"/><rect fill="#1c1c1c" x="756.4" y="99.1" width="24.4" height="24.65" shape-rendering="crispEdges"/><rect fill="#1c1c1c" x="780.8" y="99.1" width="48.8" height="24.65" shape-rendering="crispEdges"/><rect fill="#1c1c1c" x="829.6" y="99.1" width="634.4" height="24.65" shape-rendering="crispEdges"/><rect fill="#272727" x="0" y="123.5" width="1464" height="24.65" shape-rendering="crispEdges"/><rect fill="#272727" x="0" y="147.9" width="1464" height="24.65" shape-rendering="crispEdges"/><rect fill="#272727" x="0" y="172.3" width="1464" height="24.65" shape-rendering="crispEdges"/><rect fill="#272727" x="0" y="196.7" width="1464" height="24.65" shape-rendering="crispEdges"/><rect fill="#272727" x="0" y="221.1" width="1464" height="24.65" shape-rendering="crispEdges"/><rect fill="#272727" x="0" y="245.5" width="1464" height="24.65" shape-rendering="crispEdges"/><rect fill="#272727" x="0" y="269.9" width="1464" height="24.65" shape-rendering="crispEdges"/><rect fill="#272727" x="0" y="294.3" width="1464" height="24.65" shape-rendering="crispEdges"/><rect fill="#272727" x="0" y="318.7" width="1464" height="24.65" shape-rendering="crispEdges"/><rect fill="#272727" x="0" y="343.1" width="1464" height="24.65" shape-rendering="crispEdges"/><rect fill="#272727" x="0" y="367.5" width="1464" height="24.65" shape-rendering="crispEdges"/><rect fill="#272727" x="0" y="391.9" width="1464" height="24.65" shape-rendering="crispEdges"/><rect fill="#272727" x="0" y="416.3" width="1464" height="24.65" shape-rendering="crispEdges"/><rect fill="#272727" x="0" y="440.7" width="1464" height="24.65" shape-rendering="crispEdges"/><rect fill="#272727" x="0" y="465.1" width="1464" height="24.65" shape-rendering="crispEdges"/><rect fill="#272727" x="0" y="489.5" width="1464" height="24.65" shape-rendering="crispEdges"/><rect fill="#272727" x="0" y="513.9" width="1464" height="24.65" shape-rendering="crispEdges"/><rect fill="#121212" x="0" y="538.3" width="1464" height="24.65" shape-rendering="crispEdges"/><rect fill="#121212" x="0" y="562.7" width="1464" height="24.65" shape-rendering="crispEdges"/><rect fill="#121212" x="0" y="587.1" width="24.4" height="24.65" shape-rendering="crispEdges"/><rect fill="#121212" x="24.4" y="587.1" width="671" height="24.65" shape-rendering="crispEdges"/><rect fill="#121212" x="695.4" y="587.1" width="744.2" height="24.65" shape-rendering="crispEdges"/><rect fill="#121212" x="1439.6" y="587.1" width="24.4" height="24.65" shape-rendering="crispEdges"/><rect fill="#121212" x="0" y="611.5" width="24.4" height="24.65" shape-rendering="crispEdges"/><rect fill="#121212" x="24.4" y="611.5" width="597.8" height="24.65" shape-rendering="crispEdges"/><rect fill="#121212" x="622.2" y="611.5" width="817.4" height="24.65" shape-rendering="crispEdges"/><rect fill="#121212" x="1439.6" y="611.5" width="24.4" height="24.65" shape-rendering="crispEdges"/><rect fill="#121212" x="0" y="635.9" width="24.4" height="24.65" shape-rendering="crispEdges"/><rect fill="#121212" x="24.4" y="635.9" width="597.8" height="24.65" shape-rendering="crispEdges"/><rect fill="#121212" x="622.2" y="635.9" width="817.4" height="24.65" shape-rendering="crispEdges"/><rect fill="#121212" x="1439.6" y="635.9" width="24.4" height="24.65" shape-rendering="crispEdges"/><rect fill="#121212" x="0" y="660.3" width="24.4" height="24.65" shape-rendering="crispEdges"/><rect fill="#121212" x="24.4" y="660.3" width="0" height="24.65" shape-rendering="crispEdges"/><rect fill="#121212" x="24.4" y="660.3" width="1415.2" height="24.65" shape-rendering="crispEdges"/><rect fill="#121212" x="1439.6" y="660.3" width="24.4" height="24.65" shape-rendering="crispEdges"/><rect fill="#121212" x="0" y="684.7" width="24.4" height="24.65" shape-rendering="crispEdges"/><rect fill="#121212" x="24.4" y="684.7" width="134.2" height="24.65" shape-rendering="crispEdges"/><rect fill="#121212" x="158.6" y="684.7" width="1281" height="24.65" shape-rendering="crispEdges"/><rect fill="#121212" x="1439.6" y="684.7" width="24.4" height="24.65" shape-rendering="crispEdges"/><rect fill="#121212" x="0" y="709.1" width="24.4" height="24.65" shape-rendering="crispEdges"/><rect fill="#121212" x="24.4" y="709.1" width="158.6" height="24.65" shape-rendering="crispEdges"/><rect fill="#121212" x="183" y="709.1" width="1256.6" height="24.65" shape-rendering="crispEdges"/><rect fill="#121212" x="1439.6" y="709.1" width="24.4" height="24.65" shape-rendering="crispEdges"/><rect fill="#121212" x="0" y="733.5" width="24.4" height="24.65" shape-rendering="crispEdges"/><rect fill="#121212" x="24.4" y="733.5" width="1159" height="24.65" shape-rendering="crispEdges"/><rect fill="#121212" x="1183.4" y="733.5" width="256.2" height="24.65" shape-rendering="crispEdges"/><rect fill="#121212" x="1439.6" y="733.5" width="24.4" height="24.65" shape-rendering="crispEdges"/><rect fill="#121212" x="0" y="757.9" width="24.4" height="24.65" shape-rendering="crispEdges"/><rect fill="#121212" x="24.4" y="757.9" width="610" height="24.65" shape-rendering="crispEdges"/><rect fill="#121212" x="634.4" y="757.9" width="805.2" height="24.65" shape-rendering="crispEdges"/><rect fill="#121212" x="1439.6" y="757.9" width="24.4" height="24.65" shape-rendering="crispEdges"/><rect fill="#121212" x="0" y="782.3" width="24.4" height="24.65" shape-rendering="crispEdges"/><rect fill="#121212" x="24.4" y="782.3" width="1415.2" height="24.65" shape-rendering="crispEdges"/><rect fill="#121212" x="1439.6" y="782.3" width="24.4" height="24.65" shape-rendering="crispEdges"/><rect fill="#121212" x="0" y="806.7" width="24.4" height="24.65" shape-rendering="crispEdges"/><rect fill="#121212" x="24.4" y="806.7" width="1415.2" height="24.65" shape-rendering="crispEdges"/><rect fill="#121212" x="1439.6" y="806.7" width="24.4" height="24.65" shape-rendering="crispEdges"/><rect fill="#121212" x="0" y="831.1" width="24.4" height="24.65" shape-rendering="crispEdges"/><rect fill="#121212" x="24.4" y="831.1" width="1415.2" height="24.65" shape-rendering="crispEdges"/><rect fill="#121212" x="1439.6" y="831.1" width="24.4" height="24.65" shape-rendering="crispEdges"/><rect fill="#121212" x="0" y="855.5" width="1464" height="24.65" shape-rendering="crispEdges"/><rect fill="#1f4d5a" x="0" y="879.9" width="24.4" height="24.65" shape-rendering="crispEdges"/><rect fill="#1f4d5a" x="24.4" y="879.9" width="500.2" height="24.65" shape-rendering="crispEdges"/><rect fill="#1f4d5a" x="524.6" y="879.9" width="915" height="24.65" shape-rendering="crispEdges"/><rect fill="#1f4d5a" x="1439.6" y="879.9" width="24.4" height="24.65" shape-rendering="crispEdges"/><rect fill="#242f38" x="0" y="904.3" width="36.6" height="24.65" shape-rendering="crispEdges"/><rect fill="#242f38" x="36.6" y="904.3" width="61" height="24.65" shape-rendering="crispEdges"/><rect fill="#242f38" x="97.6" y="904.3" width="36.6" height="24.65" shape-rendering="crispEdges"/><rect fill="#242f38" x="134.2" y="904.3" width="61" height="24.65" shape-rendering="crispEdges"/><rect fill="#242f38" x="195.2" y="904.3" width="36.6" height="24.65" shape-rendering="crispEdges"/><rect fill="#242f38" x="231.8" y="904.3" width="36.6" height="24.65" shape-rendering="crispEdges"/><rect fill="#242f38" x="268.4" y="904.3" width="36.6" height="24.65" shape-rendering="crispEdges"/><rect fill="#242f38" x="305" y="904.3" width="48.8" height="24.65" shape-rendering="crispEdges"/><rect fill="#242f38" x="353.8" y="904.3" width="36.6" height="24.65" shape-rendering="crispEdges"/><rect fill="#242f38" x="390.4" y="904.3" width="85.4" height="24.65" shape-rendering="crispEdges"/><rect fill="#242f38" x="475.8" y="904.3" width="36.6" height="24.65" shape-rendering="crispEdges"/><rect fill="#242f38" x="512.4" y="904.3" width="61" height="24.65" shape-rendering="crispEdges"/><rect fill="#242f38" x="573.4" y="904.3" width="36.6" height="24.65" shape-rendering="crispEdges"/><rect fill="#242f38" x="610" y="904.3" width="85.4" height="24.65" shape-rendering="crispEdges"/><rect fill="#242f38" x="695.4" y="904.3" width="622.2" height="24.65" shape-rendering="crispEdges"/><rect fill="#242f38" x="1317.6" y="904.3" width="12.2" height="24.65" shape-rendering="crispEdges"/><rect fill="#242f38" x="1329.8" y="904.3" width="24.4" height="24.65" shape-rendering="crispEdges"/><rect fill="#242f38" x="1354.2" y="904.3" width="97.6" height="24.65" shape-rendering="crispEdges"/><rect fill="#242f38" x="1451.8" y="904.3" width="12.2" height="24.65" shape-rendering="crispEdges"/>
    <g class="terminal-3781296339-matrix">
    <text class="terminal-3781296339-r2" x="12.2" y="20" textLength="12.2" clip-path="url(#terminal-3781296339-line-0)">⭘</text><text class="terminal-3781296339-r2" x="585.6" y="20" textLength="61" clip-path="url(#terminal-3781296339-line-0)">dcmon</text><text class="terminal-3781296339-r3" x="646.6" y="20" textLength="36.6" clip-path="url(#terminal-3781296339-line-0)">&#160;—&#160;</text><text class="terminal-3781296339-r3" x="683.2" y="20" textLength="158.6" clip-path="url(#terminal-3781296339-line-0)">demo&#160;snapshot</text><text class="terminal-3781296339-r1" x="1464" y="20" textLength="12.2" clip-path="url(#terminal-3781296339-line-0)">
</text><text class="terminal-3781296339-r4" x="0" y="44.4" textLength="170.8" clip-path="url(#terminal-3781296339-line-1)">&#160;Project&#160;&#160;&#160;&#160;&#160;&#160;</text><text class="terminal-3781296339-r4" x="170.8" y="44.4" textLength="146.4" clip-path="url(#terminal-3781296339-line-1)">&#160;Service&#160;&#160;&#160;&#160;</text><text class="terminal-3781296339-r4" x="317.2" y="44.4" textLength="256.2" clip-path="url(#terminal-3781296339-line-1)">&#160;Repo&#160;&#160;&#160;&#160;&#160;&#160;&#160;&#160;&#160;&#160;&#160;&#160;&#160;&#160;&#160;&#160;</text><text class="terminal-3781296339-r4" x="573.4" y="44.4" textLength="122" clip-path="url(#terminal-3781296339-line-1)">&#160;Branch&#160;&#160;&#160;</text><text class="terminal-3781296339-r4" x="695.4" y="44.4" textLength="48.8" clip-path="url(#terminal-3781296339-line-1)">&#160;WT&#160;</text><text class="terminal-3781296339-r4" x="744.2" y="44.4" textLength="85.4" clip-path="url(#terminal-3781296339-line-1)">&#160;Extra&#160;</text><text class="terminal-3781296339-r1" x="1464" y="44.4" textLength="12.2" clip-path="url(#terminal-3781296339-line-1)">
</text><text class="terminal-3781296339-r5" x="0" y="68.8" textLength="170.8" clip-path="url(#terminal-3781296339-line-2)">&#160;sample-stack&#160;</text><text class="terminal-3781296339-r5" x="170.8" y="68.8" textLength="146.4" clip-path="url(#terminal-3781296339-line-2)">&#160;web-client&#160;</text><text class="terminal-3781296339-r5" x="317.2" y="68.8" textLength="256.2" clip-path="url(#terminal-3781296339-line-2)">&#160;web-client_PROJ-123&#160;</text><text class="terminal-3781296339-r5" x="573.4" y="68.8" textLength="122" clip-path="url(#terminal-3781296339-line-2)">&#160;PROJ-123&#160;</text><text class="terminal-3781296339-r5" x="695.4" y="68.8" textLength="48.8" clip-path="url(#terminal-3781296339-line-2)">&#160;W&#160;&#160;</text><text class="terminal-3781296339-r1" x="1464" y="68.8" textLength="12.2" clip-path="url(#terminal-3781296339-line-2)">
</text><text class="terminal-3781296339-r6" x="183" y="93.2" textLength="85.4" clip-path="url(#terminal-3781296339-line-3)">backend</text><text class="terminal-3781296339-r6" x="329.4" y="93.2" textLength="134.2" clip-path="url(#terminal-3781296339-line-3)">api-service</text><text class="terminal-3781296339-r6" x="585.6" y="93.2" textLength="48.8" clip-path="url(#terminal-3781296339-line-3)">main</text><text class="terminal-3781296339-r6" x="707.6" y="93.2" textLength="12.2" clip-path="url(#terminal-3781296339-line-3)">-</text><text class="terminal-3781296339-r1" x="1464" y="93.2" textLength="12.2" clip-path="url(#terminal-3781296339-line-3)">
</text><text class="terminal-3781296339-r6" x="183" y="117.6" textLength="73.2" clip-path="url(#terminal-3781296339-line-4)">worker</text><text class="terminal-3781296339-r6" x="329.4" y="117.6" textLength="170.8" clip-path="url(#terminal-3781296339-line-4)">worker-service</text><text class="terminal-3781296339-r6" x="585.6" y="117.6" textLength="48.8" clip-path="url(#terminal-3781296339-line-4)">main</text><text class="terminal-3781296339-r6" x="707.6" y="117.6" textLength="12.2" clip-path="url(#terminal-3781296339-line-4)">-</text><text class="terminal-3781296339-r6" x="756.4" y="117.6" textLength="24.4" clip-path="url(#terminal-3781296339-line-4)">+1</text><text class="terminal-3781296339-r1" x="1464" y="117.6" textLength="12.2" clip-path="url(#terminal-3781296339-line-4)">
</text><text class="terminal-3781296339-r1" x="1464" y="142" textLength="12.2" clip-path="url(#terminal-3781296339-line-5)">
</text><text class="terminal-3781296339-r1" x="1464" y="166.4" textLength="12.2" clip-path="url(#terminal-3781296339-line-6)">
</text><text class="terminal-3781296339-r1" x="1464" y="190.8" textLength="12.2" clip-path="url(#terminal-3781296339-line-7)">
</text><text class="terminal-3781296339-r1" x="1464" y="215.2" textLength="12.2" clip-path="url(#terminal-3781296339-line-8)">
</text><text class="terminal-3781296339-r1" x="1464" y="239.6" textLength="12.2" clip-path="url(#terminal-3781296339-line-9)">
</text><text class="terminal-3781296339-r1" x="1464" y="264" textLength="12.2" clip-path="url(#terminal-3781296339-line-10)">
</text><text class="terminal-3781296339-r1" x="1464" y="288.4" textLength="12.2" clip-path="url(#terminal-3781296339-line-11)">
</text><text class="terminal-3781296339-r1" x="1464" y="312.8" textLength="12.2" clip-path="url(#terminal-3781296339-line-12)">
</text><text class="terminal-3781296339-r1" x="1464" y="337.2" textLength="12.2" clip-path="url(#terminal-3781296339-line-13)">
</text><text class="terminal-3781296339-r1" x="1464" y="361.6" textLength="12.2" clip-path="url(#terminal-3781296339-line-14)">
</text><text class="terminal-3781296339-r1" x="1464" y="386" textLength="12.2" clip-path="url(#terminal-3781296339-line-15)">
</text><text class="terminal-3781296339-r1" x="1464" y="410.4" textLength="12.2" clip-path="url(#terminal-3781296339-line-16)">
</text><text class="terminal-3781296339-r1" x="1464" y="434.8" textLength="12.2" clip-path="url(#terminal-3781296339-line-17)">
</text><text class="terminal-3781296339-r1" x="1464" y="459.2" textLength="12.2" clip-path="url(#terminal-3781296339-line-18)">
</text><text class="terminal-3781296339-r1" x="1464" y="483.6" textLength="12.2" clip-path="url(#terminal-3781296339-line-19)">
</text><text class="terminal-3781296339-r1" x="1464" y="508" textLength="12.2" clip-path="url(#terminal-3781296339-line-20)">
</text><text class="terminal-3781296339-r1" x="1464" y="532.4" textLength="12.2" clip-path="url(#terminal-3781296339-line-21)">
</text><text class="terminal-3781296339-r7" x="0" y="556.8" textLength="1464" clip-path="url(#terminal-3781296339-line-22)">────────────────────────────────────────────────────────────────────────────────────────────────────────────────────────</text><text class="terminal-3781296339-r1" x="1464" y="556.8" textLength="12.2" clip-path="url(#terminal-3781296339-line-22)">
</text><text class="terminal-3781296339-r1" x="1464" y="581.2" textLength="12.2" clip-path="url(#terminal-3781296339-line-23)">
</text><text class="terminal-3781296339-r2" x="24.4" y="605.6" textLength="671" clip-path="url(#terminal-3781296339-line-24)">sample-stack/web-client&#160;&#160;web-client_PROJ-123@PROJ-123&#160;&#160;</text><text class="terminal-3781296339-r1" x="1464" y="605.6" textLength="12.2" clip-path="url(#terminal-3781296339-line-24)">
</text><text class="terminal-3781296339-r2" x="24.4" y="630" textLength="597.8" clip-path="url(#terminal-3781296339-line-25)">compose&#160;dir:&#160;/workspace/sample-suite/sample-stack</text><text class="terminal-3781296339-r1" x="1464" y="630" textLength="12.2" clip-path="url(#terminal-3781296339-line-25)">
</text><text class="terminal-3781296339-r2" x="24.4" y="654.4" textLength="597.8" clip-path="url(#terminal-3781296339-line-26)">main&#160;checkout:&#160;/workspace/sample-suite/web-client</text><text class="terminal-3781296339-r1" x="1464" y="654.4" textLength="12.2" clip-path="url(#terminal-3781296339-line-26)">
</text><text class="terminal-3781296339-r1" x="1464" y="678.8" textLength="12.2" clip-path="url(#terminal-3781296339-line-27)">
</text><text class="terminal-3781296339-r2" x="24.4" y="703.2" textLength="134.2" clip-path="url(#terminal-3781296339-line-28)">containers:</text><text class="terminal-3781296339-r1" x="1464" y="703.2" textLength="12.2" clip-path="url(#terminal-3781296339-line-28)">
</text><text class="terminal-3781296339-r2" x="24.4" y="727.6" textLength="158.6" clip-path="url(#terminal-3781296339-line-29)">&#160;&#160;web-client&#160;</text><text class="terminal-3781296339-r1" x="1464" y="727.6" textLength="12.2" clip-path="url(#terminal-3781296339-line-29)">
</text><text class="terminal-3781296339-r2" x="24.4" y="752" textLength="1159" clip-path="url(#terminal-3781296339-line-30)">&#160;&#160;&#160;&#160;bind&#160;&#160;/workspace/sample-suite/web-client_PROJ-123&#160;-&gt;&#160;/app&#160;&#160;[web-client_PROJ-123@PROJ-123&#160;W]</text><text class="terminal-3781296339-r1" x="1464" y="752" textLength="12.2" clip-path="url(#terminal-3781296339-line-30)">
</text><text class="terminal-3781296339-r2" x="24.4" y="776.4" textLength="610" clip-path="url(#terminal-3781296339-line-31)">&#160;&#160;&#160;&#160;vol&#160;&#160;&#160;sample-node-modules&#160;-&gt;&#160;/app/node_modules</text><text class="terminal-3781296339-r1" x="1464" y="776.4" textLength="12.2" clip-path="url(#terminal-3781296339-line-31)">
</text><text class="terminal-3781296339-r1" x="1464" y="800.8" textLength="12.2" clip-path="url(#terminal-3781296339-line-32)">
</text><text class="terminal-3781296339-r1" x="1464" y="825.2" textLength="12.2" clip-path="url(#terminal-3781296339-line-33)">
</text><text class="terminal-3781296339-r1" x="1464" y="849.6" textLength="12.2" clip-path="url(#terminal-3781296339-line-34)">
</text><text class="terminal-3781296339-r1" x="1464" y="874" textLength="12.2" clip-path="url(#terminal-3781296339-line-35)">
</text><text class="terminal-3781296339-r8" x="24.4" y="898.4" textLength="500.2" clip-path="url(#terminal-3781296339-line-36)">demo&#160;snapshot&#160;using&#160;sanitized&#160;sample&#160;data</text><text class="terminal-3781296339-r1" x="1464" y="898.4" textLength="12.2" clip-path="url(#terminal-3781296339-line-36)">
</text><text class="terminal-3781296339-r9" x="0" y="922.8" textLength="36.6" clip-path="url(#terminal-3781296339-line-37)">&#160;q&#160;</text><text class="terminal-3781296339-r2" x="36.6" y="922.8" textLength="61" clip-path="url(#terminal-3781296339-line-37)">Quit&#160;</text><text class="terminal-3781296339-r9" x="97.6" y="922.8" textLength="36.6" clip-path="url(#terminal-3781296339-line-37)">&#160;j&#160;</text><text class="terminal-3781296339-r2" x="134.2" y="922.8" textLength="61" clip-path="url(#terminal-3781296339-line-37)">Down&#160;</text><text class="terminal-3781296339-r9" x="195.2" y="922.8" textLength="36.6" clip-path="url(#terminal-3781296339-line-37)">&#160;k&#160;</text><text class="terminal-3781296339-r2" x="231.8" y="922.8" textLength="36.6" clip-path="url(#terminal-3781296339-line-37)">Up&#160;</text><text class="terminal-3781296339-r9" x="268.4" y="922.8" textLength="36.6" clip-path="url(#terminal-3781296339-line-37)">&#160;g&#160;</text><text class="terminal-3781296339-r2" x="305" y="922.8" textLength="48.8" clip-path="url(#terminal-3781296339-line-37)">Top&#160;</text><text class="terminal-3781296339-r9" x="353.8" y="922.8" textLength="36.6" clip-path="url(#terminal-3781296339-line-37)">&#160;G&#160;</text><text class="terminal-3781296339-r2" x="390.4" y="922.8" textLength="85.4" clip-path="url(#terminal-3781296339-line-37)">Bottom&#160;</text><text class="terminal-3781296339-r9" x="475.8" y="922.8" textLength="36.6" clip-path="url(#terminal-3781296339-line-37)">&#160;l&#160;</text><text class="terminal-3781296339-r2" x="512.4" y="922.8" textLength="61" clip-path="url(#terminal-3781296339-line-37)">Logs&#160;</text><text class="terminal-3781296339-r9" x="573.4" y="922.8" textLength="36.6" clip-path="url(#terminal-3781296339-line-37)">&#160;s&#160;</text><text class="terminal-3781296339-r2" x="610" y="922.8" textLength="85.4" clip-path="url(#terminal-3781296339-line-37)">Switch&#160;</text><text class="terminal-3781296339-r10" x="1317.6" y="922.8" textLength="12.2" clip-path="url(#terminal-3781296339-line-37)">▏</text><text class="terminal-3781296339-r9" x="1329.8" y="922.8" textLength="24.4" clip-path="url(#terminal-3781296339-line-37)">^p</text><text class="terminal-3781296339-r2" x="1354.2" y="922.8" textLength="97.6" clip-path="url(#terminal-3781296339-line-37)">&#160;palette</text>
    </g>
    </g>
</svg>
